<svg xmlns="http://www.w3.org/2000/svg" width="225.746" height="17.5" viewBox="0 0 225.746 17.5">
  <g id="Group_232" data-name="Group 232" transform="translate(-173 -175)">
    <g id="_001-twitter-logo-silhouette" data-name="001-twitter-logo-silhouette" transform="translate(218.828 176.146)">
      <g id="Group_25" data-name="Group 25" transform="translate(0 0)">
        <path id="Path_69" data-name="Path 69" d="M18.505,59.219a7.58,7.58,0,0,1-2.18.6,3.812,3.812,0,0,0,1.669-2.1,7.653,7.653,0,0,1-2.412.922A3.8,3.8,0,0,0,9.114,62.1,10.777,10.777,0,0,1,1.29,58.135,3.8,3.8,0,0,0,2.465,63.2a3.8,3.8,0,0,1-1.719-.476v.047A3.8,3.8,0,0,0,3.79,66.495a3.845,3.845,0,0,1-1,.133,3.643,3.643,0,0,1-.715-.071,3.8,3.8,0,0,0,3.545,2.636A7.616,7.616,0,0,1,.906,70.816,8.067,8.067,0,0,1,0,70.764a10.73,10.73,0,0,0,5.818,1.708,10.725,10.725,0,0,0,10.8-10.8l-.013-.491A7.58,7.58,0,0,0,18.505,59.219Z" transform="translate(-0.001 -57.441)" fill="#c5c5c5"/>
      </g>
    </g>
    <g id="_002-facebook-logo" data-name="002-facebook-logo" transform="translate(173 175)">
      <path id="Path_70" data-name="Path 70" d="M31.092,0,28.845,0a3.946,3.946,0,0,0-4.156,4.264V6.23H22.43a.353.353,0,0,0-.353.353V9.432a.353.353,0,0,0,.353.353h2.259v7.188a.353.353,0,0,0,.353.353H27.99a.353.353,0,0,0,.353-.353V9.785h2.641a.353.353,0,0,0,.353-.353V6.584a.354.354,0,0,0-.353-.353H28.344V4.563c0-.8.191-1.208,1.234-1.208h1.514A.353.353,0,0,0,31.445,3V.357A.353.353,0,0,0,31.092,0Z" transform="translate(-22.077)" fill="#c5c5c5"/>
    </g>
    <g id="_005-youtube" data-name="005-youtube" transform="translate(379.227 177.291)">
      <g id="Group_32" data-name="Group 32" transform="translate(0 0)">
        <path id="Path_73" data-name="Path 73" d="M18.69,81.293c-.529-.942-1.1-1.115-2.274-1.181S12.308,80,9.762,80s-5.491.033-6.659.111S1.36,80.35.826,81.293,0,83.854,0,86.706v.01c0,2.84.281,4.472.826,5.4S1.935,93.232,3.1,93.311s4.109.109,6.66.109,5.485-.04,6.655-.107,1.745-.25,2.274-1.192c.55-.931.828-2.563.828-5.4v-.01C19.519,83.854,19.241,82.234,18.69,81.293ZM7.32,90.37V83.05l6.1,3.66Z" transform="translate(0 -80)" fill="#c5c5c5"/>
      </g>
    </g>
    <g id="_004-linkedin-logo" data-name="004-linkedin-logo" transform="translate(273.822 176.146)">
      <path id="LinkedIn" d="M15.589,18.691v5.763H12.248V19.077c0-1.351-.483-2.273-1.693-2.273a1.828,1.828,0,0,0-1.714,1.222,2.286,2.286,0,0,0-.111.815v5.613H5.388s.045-9.107,0-10.051H8.73v1.425l-.022.032H8.73v-.032a3.318,3.318,0,0,1,3.012-1.661C13.94,14.167,15.589,15.6,15.589,18.691ZM1.891,9.558a1.742,1.742,0,1,0-.044,3.474h.022a1.742,1.742,0,1,0,.022-3.474ZM.2,24.454H3.54V14.4H.2Z" transform="translate(0 -9.558)" fill="#c5c5c5"/>
    </g>
    <g id="instagram_1_" data-name="instagram (1)" transform="translate(325.379 175)">
      <path id="Path_74" data-name="Path 74" d="M12.287,0H5.213A5.219,5.219,0,0,0,0,5.213v7.073A5.219,5.219,0,0,0,5.213,17.5h7.073A5.219,5.219,0,0,0,17.5,12.287V5.213A5.219,5.219,0,0,0,12.287,0ZM15.74,12.287a3.453,3.453,0,0,1-3.453,3.453H5.213a3.453,3.453,0,0,1-3.453-3.453V5.213A3.453,3.453,0,0,1,5.213,1.76h7.073A3.453,3.453,0,0,1,15.74,5.213v7.073Z" fill="#c5c5c5"/>
      <path id="Path_75" data-name="Path 75" d="M137.526,133a4.526,4.526,0,1,0,4.526,4.526A4.531,4.531,0,0,0,137.526,133Zm0,7.292a2.766,2.766,0,1,1,2.766-2.766A2.766,2.766,0,0,1,137.526,140.292Z" transform="translate(-128.776 -128.776)" fill="#c5c5c5"/>
      <ellipse id="Ellipse_5" data-name="Ellipse 5" cx="1.085" cy="1.085" rx="1.085" ry="1.085" transform="translate(12.2 3.173)" fill="#c5c5c5"/>
    </g>
  </g>
</svg>
